<svg width="29" height="22" viewBox="0 0 29 22" fill="none" xmlns="http://www.w3.org/2000/svg">
<path d="M26.5417 0.5H9.04167C8.23667 0.5 7.60667 0.908333 7.18667 1.52667L0.875 11L7.18667 20.4617C7.60667 21.08 8.23667 21.5 9.04167 21.5H26.5417C27.825 21.5 28.875 20.45 28.875 19.1667V2.83333C28.875 1.55 27.825 0.5 26.5417 0.5ZM26.5417 19.1667H9.12333L3.675 11L9.11167 2.83333H26.5417V19.1667ZM13.02 16.8333L17.2083 12.645L21.3967 16.8333L23.0417 15.1883L18.8533 11L23.0417 6.81167L21.3967 5.16667L17.2083 9.355L13.02 5.16667L11.375 6.81167L15.5633 11L11.375 15.1883L13.02 16.8333Z" fill="#FFBB00"/>
</svg>
