<svg width="22" height="22" viewBox="0 0 22 22" fill="none" xmlns="http://www.w3.org/2000/svg">
<path d="M0.875 9.83333H21.875V12.1667H0.875V9.83333ZM11.3785 0.500002C11.8381 0.500461 12.2932 0.591447 12.7176 0.767763C13.1421 0.944079 13.5277 1.20227 13.8523 1.5276C14.177 1.85293 14.4345 2.23903 14.6099 2.66384C14.7854 3.08866 14.8755 3.54387 14.875 4.0035C14.8745 4.46313 14.7836 4.91816 14.6072 5.34263C14.4309 5.76709 14.1727 6.15267 13.8474 6.47735C13.5221 6.80203 13.136 7.05945 12.7112 7.23492C12.2863 7.41039 11.8311 7.50046 11.3715 7.5C10.4432 7.49907 9.55337 7.12943 8.89765 6.4724C8.24193 5.81537 7.87407 4.92476 7.875 3.9965C7.87593 3.06824 8.24557 2.17837 8.9026 1.52265C9.55964 0.866932 10.4502 0.499073 11.3785 0.500002ZM11.375 2.83333C11.0656 2.83333 10.7688 2.95625 10.55 3.17504C10.3312 3.39384 10.2083 3.69058 10.2083 4C10.2083 4.30942 10.3312 4.60617 10.55 4.82496C10.7688 5.04375 11.0656 5.16667 11.375 5.16667C11.6844 5.16667 11.9812 5.04375 12.2 4.82496C12.4187 4.60617 12.5417 4.30942 12.5417 4C12.5417 3.69058 12.4187 3.39384 12.2 3.17504C11.9812 2.95625 11.6844 2.83333 11.375 2.83333ZM11.3785 14.5C11.8381 14.5005 12.2932 14.5914 12.7176 14.7678C13.1421 14.9441 13.5277 15.2023 13.8523 15.5276C14.177 15.8529 14.4345 16.239 14.6099 16.6638C14.7854 17.0887 14.8755 17.5439 14.875 18.0035C14.8745 18.4631 14.7836 18.9182 14.6072 19.3426C14.4309 19.7671 14.1727 20.1527 13.8474 20.4774C13.5221 20.802 13.136 21.0595 12.7112 21.2349C12.2863 21.4104 11.8311 21.5005 11.3715 21.5C10.4432 21.4991 9.55337 21.1294 8.89765 20.4724C8.24193 19.8154 7.87407 18.9248 7.875 17.9965C7.87593 17.0682 8.24557 16.1784 8.9026 15.5227C9.55964 14.8669 10.4502 14.4991 11.3785 14.5ZM11.375 16.8333C11.0656 16.8333 10.7688 16.9563 10.55 17.175C10.3312 17.3938 10.2083 17.6906 10.2083 18C10.2083 18.3094 10.3312 18.6062 10.55 18.825C10.7688 19.0438 11.0656 19.1667 11.375 19.1667C11.6844 19.1667 11.9812 19.0438 12.2 18.825C12.4187 18.6062 12.5417 18.3094 12.5417 18C12.5417 17.6906 12.4187 17.3938 12.2 17.175C11.9812 16.9563 11.6844 16.8333 11.375 16.8333Z" fill="#FFBB00"/>
</svg>
