<svg width="20" height="20" viewBox="0 0 20 20" fill="none" xmlns="http://www.w3.org/2000/svg">
<path d="M4.87499 0.666687C2.62332 0.666687 0.791656 2.49835 0.791656 4.75002C0.791656 7.00169 2.62332 8.83335 4.87499 8.83335C7.12666 8.83335 8.95832 7.00169 8.95832 4.75002C8.95832 2.49835 7.12666 0.666687 4.87499 0.666687ZM4.87499 6.50002C3.90666 6.50002 3.12499 5.71835 3.12499 4.75002C3.12499 3.78169 3.90666 3.00002 4.87499 3.00002C5.84332 3.00002 6.62499 3.78169 6.62499 4.75002C6.62499 5.71835 5.84332 6.50002 4.87499 6.50002ZM15.375 11.1667C13.1233 11.1667 11.2917 12.9984 11.2917 15.25C11.2917 17.5017 13.1233 19.3334 15.375 19.3334C17.6267 19.3334 19.4583 17.5017 19.4583 15.25C19.4583 12.9984 17.6267 11.1667 15.375 11.1667ZM15.375 17C14.4067 17 13.625 16.2184 13.625 15.25C13.625 14.2817 14.4067 13.5 15.375 13.5C16.3433 13.5 17.125 14.2817 17.125 15.25C17.125 16.2184 16.3433 17 15.375 17ZM2.43666 19.3334L0.791656 17.6884L17.8133 0.666687L19.4583 2.31169L2.43666 19.3334Z" fill="#FFBB00"/>
</svg>
